<svg fill="#000000" xmlns="http://www.w3.org/2000/svg"  viewBox="0 0 24 24" width="24px" height="24px"><path d="M4.85 0L5.756.467 8.199 3.019 8.199 4.831 5.344 1.921zM8.638 3.458L11.629 6.34 10.586 7.219 8.638 5.215zM3.889 2.415L5.179 3.074 7.293 4.913 7.403 6.725 4.905 4.858zM7.65 5.133L7.814 6.972 9.434 8.344 10.257 7.411zM3.423 5.16L4.548 5.297 6.799 6.999 7.101 8.728 4.411 6.725zM7.293 7.329L9.296 8.728 9.242 10.183 7.567 9.085zM9.763 8.646L12.178 6.395 12.014 8.262 9.626 10.787zM12.59 5.984L15.225 3.486 15.17 5.407 12.508 7.685zM15.582 2.992L15.582 4.831 18.052 2.717 18.958.192 17.695.823zM9.571 11.363L9.598 12.983 12.343 10.293 12.508 8.454zM12.974 8.042L12.755 9.689 15.829 7.136 16.021 5.297zM16.405 4.913L16.186 6.835 18.848 5.023 20.083 2.415 18.574 3.239zM16.872 6.999L18.766 5.654 20.413 5.243 18.738 7.466 16.625 8.811zM13.112 10.101L16.323 7.383 16.131 9.03 12.837 11.693zM3.615 7.329L4.822 7.768 6.634 9.387 7.073 11.199 4.658 9.277zM7.018 9.442L7.457 11.171 9.077 12.242 9.077 10.705zM9.489 13.559L12.508 10.705 12.261 12.159 9.296 15.178zM7.293 12.104L8.994 12.846 8.967 14.383 7.704 13.806zM6.661 11.748L7.183 13.587 4.493 12.132 3.423 10.375 4.713 10.375zM7.32 14.41L8.94 15.151 8.885 16.441 7.924 16.002zM3.917 12.983L4.466 12.955 6.716 14.053 7.375 15.81 4.905 14.492zM9.242 15.865L12.892 12.269 12.535 13.779 9.132 16.88zM13.715 11.528L13.112 13.394 15.966 11.61 16.652 9.442zM17.146 9.167L18.683 8.042 20.413 7.493 19.068 9.689 16.79 11.089zM17.064 11.775L19.562 10.512 20.577 10.485 18.821 12.626 16.46 13.614zM16.488 11.967L15.939 13.889 13.057 15.535 13.551 13.861zM9.132 17.264L12.919 14.3 12.37 15.974 9.022 18.088zM8.857 18.829L12.7 16.276 11.986 17.841 8.693 19.543zM13.487 15.801L16.415 14.465 15.426 16.35 12.7 17.411zM16.964 14.191L16.195 15.911 18.098 15.197 19.873 13.111 18.848 13.239zM16.506 16.313L15.811 17.923 17.494 17.265 19.58 15.49 18.281 15.599zM15.847 16.587L14.896 18.289 11.968 19.497 12.846 17.868zM12.188 18.271L11.273 19.662 8.016 21.18 8.436 20.137zM4.319 15.307L5.619 15.435 7.082 16.148 7.65 17.777 5.509 16.862zM7.961 16.679L8.693 16.99 8.693 18.106 8.345 17.942zM8.601 18.637L8.162 19.717 6.607 19.168 5.6 17.814 6.588 17.74zM6.46 20.009L7.284 19.991 8.034 20.229 7.741 21.089 6.845 20.613zM5.088 24L8.162 21.475 11.62 19.864 10.413 21.548zM12.371 19.572L11.383 20.871 14.475 19.901 15.298 18.437zM15.92 18.346L15.152 19.718 17.092 19.224 18.19 17.87 17.146 17.852zM14.603 20.56L15.811 20.194 17.11 20.157 15.847 21.438 13.597 21.804zM14.127 20.505L13.212 21.713 11.254 21.548 12.791 20.651zM14.091 22.024L16.049 21.859 17.769 23.378 15.372 22.865z"/></svg>