<svg fill="#000000" xmlns="http://www.w3.org/2000/svg"  viewBox="0 0 24 24" width="24px" height="24px"><path d="M 13.113281 2.8574219 C 10.498289 2.8611841 7.9276703 3.9502939 5.8691406 6.15625 C 4.5295203 7.5926687 3.7710226 9.3426381 3.5625 11.142578 L 3.5429688 11.134766 L 0.0078125 21 L 11.992188 21 L 11.992188 20.994141 C 14.096666 20.985912 16.180865 20.169794 17.693359 18.548828 C 20.059204 16.012547 20.001934 11.905885 17.5625 9.3789062 C 16.49066 8.2689132 15.099844 7.4966847 13.589844 7.34375 C 12.079329 7.1907631 10.458401 7.7249118 9.2050781 9.0566406 C 7.511016 10.85683 7.5396726 13.832181 9.2832031 15.623047 C 9.8832704 16.238816 10.688734 16.67526 11.59375 16.822266 C 12.498766 16.969272 13.562814 16.769986 14.347656 16.013672 C 14.947795 15.434694 15.156054 14.606806 15.066406 13.876953 C 14.976756 13.1471 14.631706 12.469868 14.097656 11.931641 L 13.392578 11.222656 L 11.974609 12.630859 L 12.677734 13.339844 C 12.910685 13.574617 13.053179 13.886197 13.082031 14.121094 C 13.110881 14.355991 13.067841 14.469196 12.958984 14.574219 C 12.671207 14.850684 12.34729 14.918027 11.914062 14.847656 C 11.480078 14.777166 10.99573 14.512795 10.716797 14.226562 C 9.8083273 13.29343 9.8021739 11.341545 10.662109 10.427734 C 11.534787 9.5004636 12.440687 9.2379712 13.388672 9.3339844 C 14.336657 9.4299974 15.336988 9.9511806 16.125 10.767578 C 17.809566 12.512599 17.836577 15.463874 16.232422 17.183594 C 14.126032 19.441046 10.432543 19.622657 8.015625 17.554688 C 4.8949145 14.884853 4.6076123 10.440812 7.3320312 7.5195312 C 9.0575016 5.6704873 11.038477 4.8604097 13.115234 4.8574219 C 15.191992 4.8544319 17.392275 5.6920892 19.419922 7.3339844 L 20.025391 7.8242188 L 23.183594 5.4648438 L 23.986328 4.8652344 L 22.789062 3.2636719 L 21.988281 3.8613281 L 19.976562 5.3632812 C 17.828006 3.8107136 15.477708 2.8540202 13.113281 2.8574219 z M 4.125 15.441406 C 4.643972 16.763764 5.4847117 17.989818 6.6386719 19 L 2.8496094 19 L 4.125 15.441406 z"/></svg>