<svg fill="#000000" xmlns="http://www.w3.org/2000/svg"  viewBox="0 0 24 24" width="24px" height="24px"><path d="M 11 3 C 9.5 3 8.011719 3.292969 7.3125 4.09375 C 6.511719 4.292969 4.914063 4.601563 2.8125 5 L 2 5.1875 L 2 6 C 2 7.300781 2.90625 8.488281 4.40625 9.1875 C 3.804688 9.6875 3 10 2 10 L 2 12 C 3.898438 12 5.605469 11.105469 6.40625 9.90625 C 6.90625 9.90625 7.398438 10 8 10 L 8 8 C 6.300781 8 4.914063 7.414063 4.3125 6.8125 C 6.710938 6.3125 8.1875 6 8.1875 6 L 9 5.8125 L 9 5.3125 C 9.300781 5.210938 10 5 11 5 C 12.800781 5 14.800781 6.5 15 7 L 15 7.6875 L 19.59375 9.5 C 19.09375 10.300781 18.511719 11 18.3125 11 C 17.8125 10.800781 17.3125 10.699219 16.8125 10.5 C 14.3125 9.699219 12.289063 9.011719 11.1875 10.3125 C 10.488281 11.210938 10.492188 11.992188 10.59375 12.59375 C 10.894531 13.59375 11.789063 14.59375 13.6875 15.59375 L 9.8125 15 L 9.5 15.09375 C 8.699219 15.492188 8.195313 16.6875 8.09375 17.6875 C 7.992188 18.988281 8.507813 20.113281 9.40625 20.8125 L 10.59375 19.1875 C 10.292969 18.988281 10.09375 18.585938 10.09375 18.1875 C 10.09375 17.6875 10.210938 17.292969 10.3125 17.09375 L 16 18 L 16.1875 18 C 17.289063 17.699219 17.804688 16.789063 17.90625 16.1875 L 18.09375 15.40625 L 17.3125 15.09375 C 17.113281 14.992188 16.792969 14.914063 16.59375 14.8125 L 16.59375 13.6875 L 15.8125 14.5 C 15.710938 14.5 15.695313 14.40625 15.59375 14.40625 L 15.59375 13.40625 L 15 14 C 13 13 12.601563 12.394531 12.5 12.09375 C 12.5 11.992188 12.492188 11.886719 12.59375 11.6875 C 12.894531 11.585938 13.90625 11.792969 14.90625 12.09375 L 14.90625 13.40625 L 15.90625 12.40625 L 15.90625 13.6875 L 16.90625 12.6875 L 16.90625 14 L 17.90625 13 C 19.90625 13.300781 21.414063 10.304688 21.8125 9.40625 L 22.1875 8.40625 L 16.8125 6.3125 C 16.113281 4.613281 13.199219 3 11 3 Z M 12 7 L 14 8 L 14 7 Z M 4 12 C 4 12.199219 4 13 2 13 L 2 15 C 5.699219 15 6 12.699219 6 12 Z M 4 15 C 4 15.199219 4 16 2 16 L 2 18 C 5.699219 18 6 15.699219 6 15 Z"/></svg>