<svg fill="#000000" xmlns="http://www.w3.org/2000/svg"  viewBox="0 0 24 24" width="24px" height="24px"><path d="M 4.8222656 2.0019531 C 3.559375 2.0447266 2.346875 2.6554687 1.640625 3.7304688 C 1.050625 4.6404688 0.859375 5.7290625 1.109375 6.7890625 C 1.359375 7.8290625 2.0395313 8.7405469 3.0195312 9.3105469 L 3.0703125 9.3300781 C 6.1003125 11.070078 7.9804688 14.320547 7.9804688 17.810547 C 7.9804688 18.860547 8.3490625 19.860625 9.0390625 20.640625 C 9.7690625 21.460625 10.739062 21.940234 11.789062 21.990234 C 11.859063 22.000234 11.93 22 12 22 C 13.04 22 14.009531 21.610391 14.769531 20.900391 C 15.569531 20.140391 16.019531 19.080469 16.019531 17.980469 L 16.019531 17.810547 C 16.019531 14.320547 17.910859 11.069375 20.880859 9.359375 L 21.029297 9.2792969 C 21.959297 8.7392969 22.640625 7.8290625 22.890625 6.7890625 C 23.140625 5.7290625 22.949375 4.6404688 22.359375 3.7304688 C 21.229375 2.0104688 18.809219 1.4805469 16.949219 2.5605469 L 16 3.0996094 L 16 9 C 16 11.21 14.21 13 12 13 C 9.79 13 8 11.21 8 9 L 8 3.109375 L 7.0507812 2.5605469 C 6.3570313 2.1555469 5.58 1.9762891 4.8222656 2.0019531 z M 12 3 C 10.895 3 10 3.895 10 5 L 10 9 C 10 10.105 10.895 11 12 11 C 13.105 11 14 10.105 14 9 L 14 5 C 14 3.895 13.105 3 12 3 z"/></svg>