<svg fill="#000000" xmlns="http://www.w3.org/2000/svg"  viewBox="0 0 30 30" width="30px" height="30px"><path d="M 15.060547 2 C 7.8705469 2 3 10.258 3 13 C 3 14.171765 3.7588728 15.06435 4.6113281 15.716797 C 4.5404856 15.802602 4.466804 15.887517 4.4140625 15.982422 C 4.104464 16.539527 4 17.191181 4 18.007812 C 4 19.830503 5.0000353 20.914725 6.109375 21.474609 C 6.2588695 23.312671 7.0587308 24.624828 8.0507812 25.294922 C 9.1393703 26.030224 10.310249 26.287839 10.595703 26.443359 C 11.686765 27.037129 12.692049 28 15 28 C 17.307951 28 18.313235 27.037129 19.404297 26.443359 C 19.689751 26.287839 20.86063 26.030224 21.949219 25.294922 C 22.941269 24.624828 23.74113 23.312671 23.890625 21.474609 C 24.999965 20.914725 26 19.830503 26 18.007812 C 26 17.191181 25.895535 16.539527 25.585938 15.982422 C 25.548327 15.914744 25.492397 15.85623 25.445312 15.792969 C 26.274207 15.163086 27 14.267925 27 13 C 27 10.258 22.178547 2 15.060547 2 z M 16.414062 3.9882812 L 18.333984 7.296875 L 17.146484 7.9902344 L 16.203125 5.3222656 L 15.046875 6.5761719 L 13.767578 5.296875 L 12.853516 7.9355469 C 12.853516 7.9355469 11.697969 7.376875 11.667969 7.296875 C 11.636969 7.216875 13.615234 4.015625 13.615234 4.015625 L 14.984375 5.2695312 L 16.414062 3.9882812 z M 15 11 C 17.245316 11 19.090032 11.581479 20.333984 12.259766 C 20.465098 12.331257 20.56051 12.403642 20.677734 12.476562 C 19.267901 12.731136 17.279164 13 15 13 C 12.718393 13 10.728357 12.731373 9.3183594 12.476562 C 9.4371 12.402806 9.5331542 12.328114 9.6660156 12.255859 C 10.910054 11.579308 12.754201 11 15 11 z M 8 14.251953 C 9.4376448 14.559189 11.961093 15 15 15 C 18.038907 15 20.562355 14.559189 22 14.251953 L 22 17.462891 L 23.273438 17.101562 C 23.447926 17.052132 23.642407 17.034034 23.847656 17.021484 C 23.900889 17.136439 24 17.434136 24 18.007812 C 24 19.489535 23.372317 19.827805 22.783203 19.958984 L 22 20.132812 L 22 21 C 22 22.628251 21.493989 23.188271 20.830078 23.636719 C 20.166167 24.085167 19.299811 24.22302 18.447266 24.6875 C 17.050327 25.447731 16.818049 26 15 26 C 13.181951 26 12.949673 25.447731 11.552734 24.6875 C 10.700189 24.22302 9.8338329 24.085167 9.1699219 23.636719 C 8.5060108 23.188271 8 22.628251 8 21 L 8 20.132812 L 7.2167969 19.958984 C 6.6276829 19.827805 6 19.489535 6 18.007812 C 6 17.434136 6.099111 17.136437 6.1523438 17.021484 C 6.3575928 17.034034 6.5520741 17.052132 6.7265625 17.101562 L 8 17.462891 L 8 14.251953 z M 12 16 A 1 1.5 0 0 0 11 17.5 A 1 1.5 0 0 0 12 19 A 1 1.5 0 0 0 13 17.5 A 1 1.5 0 0 0 12 16 z M 18 16 A 1 1.5 0 0 0 17 17.5 A 1 1.5 0 0 0 18 19 A 1 1.5 0 0 0 19 17.5 A 1 1.5 0 0 0 18 16 z M 9.3632812 18 C 9.3632812 18 9 18.326344 9 19.777344 C 9 21.486344 10.158203 21.572266 10.158203 21.572266 C 10.158203 21.572266 10.286578 23.228516 11.517578 23.228516 C 12.049578 23.228516 12.357438 22.966359 12.398438 22.943359 C 12.467438 23.027359 13.023188 24 13.867188 24 C 14.523188 24 14.986328 23.53125 14.986328 23.53125 C 14.986328 23.53125 15.498266 23.974609 16.197266 23.974609 C 16.991266 23.974609 17.601562 22.960938 17.601562 22.960938 C 17.601562 22.960938 17.915578 23.226562 18.517578 23.226562 C 19.119578 23.226562 19.714234 22.726734 19.865234 21.552734 C 20.354234 21.552734 20.998047 20.799172 20.998047 19.826172 C 20.998047 18.368172 20.650391 18.017578 20.650391 18.017578 C 20.286391 18.633578 19.079609 19.306937 17.974609 19.710938 C 17.844609 20.991937 16.57 22 15 22 C 13.428 22 12.153391 20.989031 12.025391 19.707031 C 10.308391 19.070031 9.3632812 18 9.3632812 18 z"/></svg>