<svg fill="#000000" xmlns="http://www.w3.org/2000/svg"  viewBox="0 0 24 24" width="24px" height="24px"><path d="M 13.90625 2 L 12.90625 4 L 12 4 C 7 4 3 8 3 13 C 3 15.300781 3.914063 17.398438 5.3125 19 L 3.8125 22 L 6 22 L 6.8125 20.40625 C 8.3125 21.40625 10 22 12 22 C 17 22 21 18 21 13 C 21 9.5 19 6.40625 16 4.90625 L 16 2 Z M 11.90625 6 L 6.3125 17.09375 C 5.511719 15.894531 5 14.5 5 13 C 5 9.199219 8.105469 6.101563 11.90625 6 Z M 14 6.3125 L 14 11 L 16 13 L 16 7.3125 C 17.800781 8.613281 19 10.699219 19 13 C 19 16.898438 15.898438 20 12 20 C 10.398438 20 8.886719 19.5 7.6875 18.5 L 9.5 15 L 14 15 L 14 16 L 16 14 L 14 12 L 14 13 L 10.59375 13 Z M 16 15 L 14 17 L 14 18 L 16 18 Z"/></svg>