<svg fill="#000000" xmlns="http://www.w3.org/2000/svg"  viewBox="0 0 24 24" width="24px" height="24px"><path d="M 9 1 A 1.0001 1.0001 0 0 0 8.2929688 1.2929688 L 5.2929688 4.2929688 A 1.0001 1.0001 0 0 0 5 5 L 5 8.7636719 L 4.1054688 10.552734 A 1.0001 1.0001 0 0 0 4.0507812 11.316406 L 5.03125 14.257812 L 6.0195312 19.195312 A 1.0001 1.0001 0 0 0 6.4453125 19.832031 L 9.4453125 21.832031 A 1.0001 1.0001 0 0 0 10 22 L 12 22 L 14 22 A 1.0001 1.0001 0 0 0 14.554688 21.832031 L 17.554688 19.832031 A 1.0001 1.0001 0 0 0 17.980469 19.195312 L 18.96875 14.257812 L 19.949219 11.316406 A 1.0001 1.0001 0 0 0 19.894531 10.552734 L 19 8.7636719 L 19 5 A 1.0001 1.0001 0 0 0 18.707031 4.2929688 L 15.707031 1.2929688 A 1.0001 1.0001 0 0 0 15 1 L 9 1 z M 8.6347656 3.7792969 L 10.072266 7.3710938 A 1.0001 1.0001 0 0 0 11 8 L 13 8 A 1.0001 1.0001 0 0 0 13.927734 7.3710938 L 15.365234 3.7792969 L 17 5.4140625 L 17 9 A 1.0001 1.0001 0 0 0 17.105469 9.4472656 L 17.919922 11.076172 L 17.050781 13.683594 A 1.0001 1.0001 0 0 0 17.019531 13.804688 L 16.101562 18.398438 L 14.925781 19.181641 L 13.595703 18.197266 A 1.0001 1.0001 0 0 0 13 18 L 11 18 A 1.0001 1.0001 0 0 0 10.404297 18.197266 L 9.0742188 19.181641 L 7.8984375 18.398438 L 6.9804688 13.804688 A 1.0001 1.0001 0 0 0 6.9492188 13.683594 L 6.0800781 11.076172 L 6.8945312 9.4472656 A 1.0001 1.0001 0 0 0 7 9 L 7 5.4140625 L 8.6347656 3.7792969 z M 7.2421875 10.029297 L 6.7578125 11.970703 L 10.757812 12.970703 L 11.242188 11.029297 L 7.2421875 10.029297 z M 16.757812 10.029297 L 12.757812 11.029297 L 13.242188 12.970703 L 17.242188 11.970703 L 16.757812 10.029297 z"/></svg>